# Blender v3.2.2 OBJ File: ''
# www.blender.org
mtllib untitled.mtl
o Cube
v 1.000000 1.000000 -1.000000
v 1.000000 -1.000000 -1.000000
v 1.000000 1.000000 1.000000
v 1.000000 -1.000000 1.000000
v -1.000000 1.000000 -1.000000
v -1.000000 -1.000000 -1.000000
v -1.000000 1.000000 1.000000
v -1.000000 -1.000000 1.000000
vt 0.757812 0.500000
vt 0.757812 1.000000
vt 0.546875 1.000000
vt 0.546875 0.500000
vt 0.335938 0.500000
vt 0.125000 0.500000
vt 0.125000 0.000000
vt 0.335938 0.000000
vt 0.546875 0.500000
vt 0.335938 0.500000
vt 0.335938 0.000000
vt 0.546875 0.000000
vt 0.757812 0.000000
vt 0.757812 0.500000
vt 0.546875 0.500000
vt 0.546875 0.000000
vt 0.335938 1.000000
vt 0.125000 1.000000
vt 0.546875 1.000000
vt 0.335938 1.000000
vt 0.335938 0.500000
vt 0.546875 0.500000
vn 0.0000 1.0000 0.0000
vn 0.0000 0.0000 1.0000
vn -1.0000 0.0000 0.0000
vn 0.0000 -1.0000 0.0000
vn 1.0000 0.0000 0.0000
vn 0.0000 0.0000 -1.0000
usemtl Material
s off
f 1/1/1 5/2/1 7/3/1 3/4/1
f 4/5/2 3/6/2 7/7/2 8/8/2
f 8/9/3 7/10/3 5/11/3 6/12/3
f 6/13/4 2/14/4 4/15/4 8/16/4
f 2/17/5 1/18/5 3/6/5 4/5/5
f 6/19/6 5/20/6 1/21/6 2/22/6
